<svg width="1389" height="239" viewBox="0 0 1389 239" fill="none" xmlns="http://www.w3.org/2000/svg">
<path d="M17.0363 221.207C5.67875 209.804 0 194.698 0 175.87V62.6495C0 43.6156 5.67875 28.5092 17.0363 17.33C28.3766 6.15091 43.4399 0.552734 62.1746 0.552734C80.9094 0.552734 96.3501 6.15091 107.811 17.33C119.271 28.5092 125.001 44.8042 125.001 63.838V67.817C125.001 68.9194 124.624 69.9185 123.852 70.797C123.08 71.6927 122.136 72.1233 121.038 72.1233L90.2767 72.2611C87.6347 72.2611 86.3136 70.9348 86.3136 68.2821V59.9796C86.3136 52.2282 84.1005 45.9238 79.6913 41.0491C75.2821 36.1916 69.4318 33.7456 62.1575 33.7456C54.8832 33.7456 49.376 36.1916 44.9668 41.0491C40.5576 45.9238 38.3445 52.2282 38.3445 59.9796V178.868C38.3445 186.619 40.5405 192.923 44.9668 197.781C49.376 202.656 55.1062 205.084 62.1575 205.084C69.2087 205.084 75.2649 202.656 79.6913 197.781C84.1005 192.923 86.3136 186.602 86.3136 178.868V170.565C86.3136 169.463 86.6911 168.515 87.4803 167.74C88.2523 166.965 89.1787 166.586 90.2939 166.586H121.055C122.153 166.586 123.097 166.982 123.869 167.757C124.641 168.533 125.018 169.48 125.018 170.582V175.888C125.018 194.715 119.288 209.821 107.828 221.207C96.3673 232.61 81.1496 238.312 62.1918 238.312C43.234 238.312 28.3938 232.61 17.0534 221.207H17.0363Z" fill="white"/>
<path d="M229.52 163.59L210.339 58.654C210.116 57.9822 209.79 57.6549 209.344 57.6549C208.898 57.6549 208.572 57.9822 208.349 58.654L189.494 163.59L183.541 197.127L177.262 231.991C177.038 234.437 175.614 235.643 172.955 235.643H142.863C139.775 235.643 138.557 234.196 139.226 231.319L188.19 6.8578C188.619 4.42904 190.06 3.20605 192.479 3.20605H227.53C229.949 3.20605 231.39 4.42904 231.836 6.8578L280.783 231.319V232.646C280.783 234.644 279.565 235.626 277.146 235.626H246.384C243.742 235.626 242.301 234.42 242.078 231.974L235.799 197.11L229.52 163.573V163.59Z" fill="white"/>
<path d="M362.261 105.816C369.965 105.816 377.599 102.819 382.523 96.8759C387.447 90.9332 390.261 82.114 390.261 71.2793C390.261 60.4447 387.773 52.1938 382.815 45.8722C377.856 39.5678 371.406 36.4156 363.462 36.4156H343.286C342.377 36.4156 341.639 37.1563 341.639 38.0692V231.663C341.639 232.765 341.245 233.713 340.49 234.488C339.718 235.263 338.774 235.659 337.676 235.659H307.258C306.16 235.659 305.216 235.28 304.444 234.488C303.672 233.713 303.295 232.783 303.295 231.663V7.20167C303.295 6.09926 303.672 5.15188 304.444 4.37674C305.216 3.60161 306.143 3.22266 307.258 3.22266H369.433C381.116 3.22266 391.427 6.04759 400.348 11.6974C409.27 17.3473 416.218 25.3053 421.176 35.606C426.134 45.9066 428.622 57.6887 428.622 70.9693C428.622 84.2499 425.98 96.5314 420.679 106.505C415.395 116.461 408 123.988 398.53 129.087C397.638 129.311 397.312 129.983 397.535 131.085L429.943 231.043C430.166 231.491 430.269 232.042 430.269 232.696C430.269 234.695 429.051 235.676 426.632 235.676H394.876C392.662 235.676 391.238 234.574 390.569 232.352L354.661 110.346C353.992 108.09 355.673 105.85 358.007 105.85H362.244L362.261 105.816Z" fill="white"/>
<path d="M467.32 221.707C456.082 210.631 450.455 196.145 450.455 178.213V169.583C450.455 168.481 450.832 167.534 451.604 166.759C452.376 165.983 453.303 165.587 454.418 165.587H484.51C485.608 165.587 486.552 165.983 487.324 166.759C488.096 167.534 488.473 168.481 488.473 169.583V176.232C488.473 184.862 490.618 191.838 494.924 197.144C499.213 202.466 504.789 205.119 511.617 205.119C518.445 205.119 524.073 202.639 528.482 197.643C532.891 192.665 535.104 186.085 535.104 177.886C535.104 172.133 533.886 167.155 531.467 162.952C529.031 158.749 525.617 154.77 521.208 150.997C516.798 147.242 509.747 141.817 500.037 134.737C489.005 126.762 480.135 119.682 473.41 113.481C466.685 107.28 461.057 99.8044 456.545 91.0712C452.016 82.3209 449.769 72.1925 449.769 60.6861C449.769 42.3068 455.276 27.6999 466.307 16.8481C477.339 6.01346 491.887 0.570312 509.97 0.570312C528.053 0.570312 543.048 6.27183 554.285 17.6749C565.523 29.0779 571.15 44.1844 571.15 62.9942V70.9695C571.15 72.0719 570.772 73.0193 570 73.7944C569.228 74.5695 568.285 74.9657 567.187 74.9657H537.42C536.322 74.9657 535.379 74.5868 534.607 73.7944C533.835 73.0193 533.457 72.0891 533.457 70.9695V62.3397C533.457 53.7099 531.313 46.7854 527.006 41.5834C522.717 36.3814 517.039 33.7804 509.97 33.7804C503.348 33.7804 497.944 36.1575 493.757 40.9288C489.571 45.7002 487.478 52.2802 487.478 60.6861C487.478 68.6613 489.743 75.4136 494.255 80.9428C498.767 86.4721 507.654 94.1201 520.882 103.852C534.332 113.808 544.472 121.956 551.3 128.26C558.128 134.565 563.429 141.489 567.17 149.017C570.91 156.544 572.797 165.518 572.797 175.905C572.797 194.732 567.17 209.839 555.932 221.224C544.695 232.627 529.906 238.329 511.617 238.329C493.329 238.329 478.54 232.8 467.302 221.724L467.32 221.707Z" fill="white"/>
<path d="M896.93 163.572L877.75 58.6364C877.527 57.9646 877.201 57.6373 876.755 57.6373C876.308 57.6373 875.982 57.9646 875.759 58.6364L856.905 163.572L850.951 197.11L844.672 231.974C844.449 234.42 843.025 235.625 840.366 235.625H810.274C807.186 235.625 805.967 234.178 806.637 231.302L855.601 6.84022C856.03 4.41147 857.471 3.18848 859.89 3.18848H894.94C897.359 3.18848 898.8 4.41147 899.247 6.84022L948.194 231.302V232.628C948.194 234.626 946.976 235.608 944.556 235.608H913.795C911.153 235.608 909.712 234.402 909.489 231.956L903.21 197.093L896.93 163.555V163.572Z" fill="white"/>
<path d="M1030.08 105.799C1037.78 105.799 1045.42 102.802 1050.34 96.8594C1055.26 90.9167 1058.08 82.0975 1058.08 71.2628C1058.08 60.4282 1055.59 52.1773 1050.63 45.8556C1045.67 39.5512 1039.22 36.399 1031.28 36.399H1011.1C1010.19 36.399 1009.46 37.1397 1009.46 38.0526V231.647C1009.46 232.749 1009.06 233.696 1008.31 234.471C1007.54 235.247 1006.59 235.643 1005.49 235.643H975.075C973.977 235.643 973.034 235.264 972.262 234.471C971.49 233.696 971.112 232.766 971.112 231.647V7.18507C971.112 6.08266 971.49 5.13528 972.262 4.36014C973.034 3.58501 973.96 3.20605 975.075 3.20605H1037.25C1048.93 3.20605 1059.24 6.03099 1068.17 11.6809C1077.09 17.3307 1084.04 25.2888 1088.99 35.5894C1093.95 45.8901 1096.44 57.6721 1096.44 70.9527C1096.44 84.2334 1093.8 96.5149 1088.5 106.488C1083.21 116.444 1075.82 123.972 1066.35 129.071C1065.46 129.294 1065.13 129.966 1065.35 131.069L1097.76 231.026C1097.98 231.474 1098.09 232.026 1098.09 232.68C1098.09 234.678 1096.87 235.66 1094.45 235.66H1062.69C1060.48 235.66 1059.06 234.558 1058.39 232.336L1022.48 110.33C1021.81 108.073 1023.49 105.834 1025.82 105.834H1030.06L1030.08 105.799Z" fill="white"/>
<path d="M1245.1 4.36014C1245.87 5.13528 1246.25 6.08266 1246.25 7.18507V32.42C1246.25 33.5224 1245.86 34.4698 1245.1 35.2449C1244.33 36.0201 1243.39 36.4162 1242.29 36.4162H1200.29C1199.19 36.4162 1198.64 36.9674 1198.64 38.0699V231.664C1198.64 232.766 1198.27 233.714 1197.49 234.489C1196.72 235.264 1195.78 235.66 1194.68 235.66H1164.24C1163.15 235.66 1162.2 235.281 1161.43 234.489C1160.66 233.714 1160.26 232.783 1160.26 231.664V38.0526C1160.26 36.9502 1159.72 36.399 1158.62 36.399H1118.93C1117.84 36.399 1116.89 36.0201 1116.12 35.2277C1115.35 34.4526 1114.95 33.5224 1114.95 32.4028V7.18507C1114.95 6.08266 1115.33 5.13528 1116.12 4.36014C1116.89 3.58501 1117.82 3.20605 1118.93 3.20605H1242.29C1243.39 3.20605 1244.33 3.60223 1245.1 4.36014Z" fill="white"/>
<path d="M1283.31 221.689C1272.07 210.614 1266.44 196.127 1266.44 178.196V169.566C1266.44 168.464 1266.82 167.516 1267.59 166.741C1268.37 165.966 1269.29 165.57 1270.41 165.57H1300.5C1301.6 165.57 1302.54 165.966 1303.31 166.741C1304.09 167.516 1304.46 168.464 1304.46 169.566V176.215C1304.46 184.845 1306.61 191.821 1310.91 197.126C1315.2 202.449 1320.78 205.102 1327.61 205.102C1334.43 205.102 1340.06 202.621 1344.49 197.626C1348.9 192.648 1351.09 186.068 1351.09 177.869C1351.09 172.115 1349.88 167.137 1347.46 162.934C1345.04 158.731 1341.61 154.752 1337.21 150.98C1332.8 147.225 1325.75 141.799 1316.04 134.72C1305.01 126.744 1296.14 119.665 1289.42 113.464C1282.69 107.263 1277.06 99.7869 1272.55 91.0538C1268.02 82.3034 1265.78 72.175 1265.78 60.6686C1265.78 42.2893 1271.28 27.6824 1282.31 16.8305C1293.35 5.99589 1307.89 0.552734 1325.98 0.552734C1344.06 0.552734 1359.05 6.25426 1370.29 17.6573C1381.53 29.0604 1387.16 44.1669 1387.16 62.9767V70.952C1387.16 72.0544 1386.76 73.0018 1385.99 73.7769C1385.22 74.552 1384.29 74.9482 1383.18 74.9482H1353.41C1352.31 74.9482 1351.37 74.5693 1350.6 73.7769C1349.82 73.0018 1349.43 72.0716 1349.43 70.952V62.3222C1349.43 53.6924 1347.28 46.7679 1342.98 41.5659C1338.69 36.3639 1333.01 33.7629 1325.94 33.7629C1319.32 33.7629 1313.92 36.1399 1309.73 40.9113C1305.54 45.6827 1303.45 52.2627 1303.45 60.6686C1303.45 68.6438 1305.72 75.3961 1310.23 80.9254C1314.74 86.4546 1323.63 94.1026 1336.85 103.835C1350.3 113.791 1360.44 121.938 1367.29 128.243C1374.12 134.547 1379.42 141.472 1383.16 148.999C1386.9 156.527 1388.79 165.501 1388.79 175.888C1388.79 194.715 1383.16 209.821 1371.92 221.207C1360.67 232.61 1345.9 238.312 1327.61 238.312C1309.32 238.312 1294.53 232.782 1283.29 221.707L1283.31 221.689Z" fill="white"/>
<path d="M740.052 204.4C756.238 181.877 761.917 150.515 754.25 118.014H722.73C748.003 138.541 759.077 178.741 737.212 201.834C690.926 161.634 638.677 97.7716 638.677 65.8402C638.677 46.1682 651.171 37.6151 667.641 37.6151C685.531 37.6151 707.68 47.5937 723.298 64.4147V37.33C709.668 33.9088 696.038 31.9131 683.827 31.9131C651.739 31.9131 627.034 45.3129 627.034 84.0868C627.034 94.9206 629.022 104.044 632.714 112.882C567.402 150.801 595.798 237.757 671.901 237.757C690.642 237.757 708.816 232.34 723.582 221.221L742.534 235.761H784.276C773.202 230.344 755.386 217.514 740.052 204.4ZM686.383 218.655C618.8 218.655 598.354 145.669 633.566 115.448C648.332 150.801 684.395 187.864 715.915 214.378C706.26 217.514 696.322 218.655 686.383 218.655Z" fill="white"/>
</svg>
