<svg width="100" height="17" viewBox="0 0 100 17" fill="none" xmlns="http://www.w3.org/2000/svg">
<path d="M1.2267 15.5083C0.408901 14.7069 0 13.6452 0 12.3219V4.36437C0 3.02661 0.408901 1.96487 1.2267 1.17917C2.04327 0.393459 3.12791 0 4.47691 0C5.82591 0 6.93772 0.393459 7.76294 1.17917C8.58815 1.96487 9.00076 3.11014 9.00076 4.4479V4.72756C9.00076 4.80504 8.97358 4.87526 8.91799 4.937C8.8624 4.99995 8.79445 5.03022 8.71539 5.03022L6.50041 5.03991C6.31017 5.03991 6.21504 4.94669 6.21504 4.76025V4.17672C6.21504 3.63193 6.05568 3.18883 5.7382 2.84622C5.42071 2.50482 4.99946 2.33291 4.47567 2.33291C3.95188 2.33291 3.55534 2.50482 3.23785 2.84622C2.92037 3.18883 2.76101 3.63193 2.76101 4.17672V12.5326C2.76101 13.0774 2.91913 13.5205 3.23785 13.8619C3.55534 14.2045 3.96794 14.3752 4.47567 14.3752C4.9834 14.3752 5.41948 14.2045 5.7382 13.8619C6.05568 13.5205 6.21504 13.0762 6.21504 12.5326V11.949C6.21504 11.8716 6.24222 11.805 6.29905 11.7505C6.35464 11.696 6.42135 11.6694 6.50165 11.6694H8.71663C8.79569 11.6694 8.86363 11.6972 8.91922 11.7517C8.97481 11.8062 9.00199 11.8728 9.00199 11.9503V12.3231C9.00199 13.6464 8.58939 14.7081 7.76417 15.5083C6.93896 16.3098 5.8432 16.7105 4.47814 16.7105C3.11308 16.7105 2.0445 16.3098 1.22794 15.5083H1.2267Z" fill="white"/>
<path d="M16.5264 11.4588L15.1453 4.08358C15.1292 4.03637 15.1058 4.01337 15.0737 4.01337C15.0415 4.01337 15.0181 4.03637 15.002 4.08358L13.6444 11.4588L13.2157 13.8159L12.7636 16.2663C12.7475 16.4382 12.645 16.5229 12.4535 16.5229H10.2867C10.0643 16.5229 9.9766 16.4212 10.0248 16.2191L13.5505 0.44318C13.5814 0.272479 13.6851 0.186523 13.8593 0.186523H16.3831C16.5573 0.186523 16.6611 0.272479 16.6932 0.44318L20.2177 16.2191V16.3123C20.2177 16.4527 20.1299 16.5217 19.9558 16.5217H17.7408C17.5505 16.5217 17.4468 16.437 17.4307 16.2651L16.9786 13.8147L16.5264 11.4576V11.4588Z" fill="white"/>
<path d="M26.0845 7.39809C26.6392 7.39809 27.1889 7.18744 27.5435 6.76976C27.898 6.35209 28.1006 5.73224 28.1006 4.97075C28.1006 4.20926 27.9215 3.62936 27.5645 3.18505C27.2075 2.74196 26.743 2.52041 26.171 2.52041H24.7182C24.6527 2.52041 24.5996 2.57247 24.5996 2.63663V16.243C24.5996 16.3205 24.5712 16.3871 24.5169 16.4416C24.4613 16.4961 24.3933 16.5239 24.3143 16.5239H22.124C22.0449 16.5239 21.977 16.4973 21.9214 16.4416C21.8658 16.3871 21.8386 16.3217 21.8386 16.243V0.467158C21.8386 0.389677 21.8658 0.323092 21.9214 0.268613C21.977 0.214134 22.0437 0.1875 22.124 0.1875H26.6009C27.4422 0.1875 28.1846 0.386045 28.827 0.783136C29.4694 1.18023 29.9697 1.73954 30.3267 2.46351C30.6837 3.18747 30.8629 4.01555 30.8629 4.94896C30.8629 5.88236 30.6726 6.74555 30.2909 7.44651C29.9104 8.14626 29.378 8.67531 28.696 9.03367C28.6318 9.0494 28.6083 9.09662 28.6244 9.1741L30.958 16.1995C30.974 16.2309 30.9814 16.2697 30.9814 16.3157C30.9814 16.4561 30.8937 16.5251 30.7196 16.5251H28.4329C28.2736 16.5251 28.171 16.4476 28.1228 16.2915L25.5373 7.71649C25.4891 7.55789 25.6101 7.40051 25.7782 7.40051H26.0833L26.0845 7.39809Z" fill="white"/>
<path d="M33.6498 15.5432C32.8406 14.7648 32.4354 13.7466 32.4354 12.4863V11.8798C32.4354 11.8023 32.4626 11.7357 32.5182 11.6813C32.5738 11.6268 32.6405 11.5989 32.7208 11.5989H34.8876C34.9666 11.5989 35.0346 11.6268 35.0902 11.6813C35.1458 11.7357 35.1729 11.8023 35.1729 11.8798V12.3471C35.1729 12.9536 35.3274 13.444 35.6374 13.8168C35.9463 14.1909 36.3478 14.3774 36.8394 14.3774C37.3311 14.3774 37.7363 14.203 38.0538 13.8519C38.3713 13.5021 38.5306 13.0396 38.5306 12.4633C38.5306 12.059 38.4429 11.7091 38.2687 11.4137C38.0933 11.1183 37.8475 10.8386 37.53 10.5735C37.2125 10.3096 36.7048 9.92825 36.0056 9.43067C35.2112 8.87014 34.5726 8.37257 34.0883 7.93674C33.604 7.50091 33.1988 6.97549 32.8739 6.36169C32.5478 5.74669 32.386 5.03483 32.386 4.22612C32.386 2.93436 32.7825 1.90774 33.5769 1.14503C34.3712 0.38354 35.4188 0.000976562 36.7208 0.000976562C38.0229 0.000976562 39.1026 0.401699 39.9117 1.20314C40.7209 2.00459 41.1261 3.06632 41.1261 4.38835V4.94887C41.1261 5.02635 41.0989 5.09294 41.0433 5.14742C40.9877 5.2019 40.9198 5.22974 40.8407 5.22974H38.6974C38.6183 5.22974 38.5504 5.20311 38.4948 5.14742C38.4392 5.09294 38.412 5.02757 38.412 4.94887V4.34234C38.412 3.73581 38.2576 3.24913 37.9475 2.88352C37.6387 2.5179 37.2298 2.3351 36.7208 2.3351C36.244 2.3351 35.8548 2.50216 35.5534 2.83751C35.252 3.17286 35.1013 3.63533 35.1013 4.22612C35.1013 4.78665 35.2644 5.26122 35.5892 5.64984C35.9141 6.03845 36.5541 6.57598 37.5065 7.25999C38.475 7.95974 39.2051 8.53238 39.6968 8.97547C40.1885 9.41857 40.5702 9.90524 40.8395 10.4343C41.1088 10.9633 41.2447 11.5941 41.2447 12.3241C41.2447 13.6473 40.8395 14.7091 40.0303 15.5093C39.2212 16.3108 38.1563 16.7115 36.8394 16.7115C35.5225 16.7115 34.4577 16.3229 33.6485 15.5444L33.6498 15.5432Z" fill="white"/>
<path d="M64.5838 11.4578L63.2027 4.08261C63.1866 4.03539 63.1631 4.01239 63.131 4.01239C63.0989 4.01239 63.0754 4.03539 63.0594 4.08261L61.7017 11.4578L61.2731 13.815L60.8209 16.2653C60.8049 16.4372 60.7023 16.522 60.5108 16.522H58.344C58.1217 16.522 58.034 16.4203 58.0822 16.2181L61.6078 0.442203C61.6387 0.271503 61.7425 0.185547 61.9167 0.185547H64.4405C64.6147 0.185547 64.7184 0.271503 64.7506 0.442203L68.275 16.2181V16.3113C68.275 16.4517 68.1873 16.5208 68.0131 16.5208H65.7981C65.6079 16.5208 65.5041 16.436 65.4881 16.2641L65.0359 13.8138L64.5838 11.4566V11.4578Z" fill="white"/>
<path d="M74.1712 7.39711C74.7259 7.39711 75.2756 7.18646 75.6301 6.76879C75.9847 6.35112 76.1873 5.73127 76.1873 4.96977C76.1873 4.20828 76.0082 3.62838 75.6511 3.18407C75.2941 2.74098 74.8296 2.51943 74.2577 2.51943H72.8049C72.7394 2.51943 72.6863 2.57149 72.6863 2.63565V16.2421C72.6863 16.3195 72.6579 16.3861 72.6035 16.4406C72.5479 16.4951 72.48 16.5229 72.4009 16.5229H70.2107C70.1316 16.5229 70.0637 16.4963 70.0081 16.4406C69.9525 16.3861 69.9253 16.3208 69.9253 16.2421V0.466182C69.9253 0.388701 69.9525 0.322115 70.0081 0.267637C70.0637 0.213158 70.1304 0.186523 70.2107 0.186523H74.6876C75.5288 0.186523 76.2713 0.385069 76.9137 0.78216C77.556 1.17925 78.0564 1.73857 78.4134 2.46253C78.7704 3.1865 78.9495 4.01458 78.9495 4.94798C78.9495 5.88139 78.7593 6.74457 78.3776 7.44554C77.9971 8.14529 77.4646 8.67434 76.7827 9.03269C76.7185 9.04843 76.695 9.09564 76.7111 9.17312L79.0446 16.1985C79.0607 16.23 79.0681 16.2687 79.0681 16.3147C79.0681 16.4551 78.9804 16.5241 78.8062 16.5241H76.5196C76.3602 16.5241 76.2577 16.4467 76.2095 16.2905L73.6239 7.71551C73.5758 7.55692 73.6968 7.39953 73.8648 7.39953H74.17L74.1712 7.39711Z" fill="white"/>
<path d="M89.6538 0.267637C89.7094 0.322115 89.7366 0.388701 89.7366 0.466182V2.23977C89.7366 2.31725 89.7082 2.38384 89.6538 2.43832C89.5982 2.4928 89.5303 2.52064 89.4512 2.52064H86.4271C86.348 2.52064 86.3085 2.55938 86.3085 2.63686V16.2433C86.3085 16.3208 86.2813 16.3873 86.2257 16.4418C86.1701 16.4963 86.1022 16.5241 86.0231 16.5241H83.8316C83.7526 16.5241 83.6846 16.4975 83.629 16.4418C83.5734 16.3873 83.545 16.322 83.545 16.2433V2.63565C83.545 2.55817 83.5055 2.51943 83.4264 2.51943H80.5691C80.49 2.51943 80.4221 2.4928 80.3665 2.43711C80.3109 2.38263 80.2825 2.31725 80.2825 2.23856V0.466182C80.2825 0.388701 80.3096 0.322115 80.3665 0.267637C80.4221 0.213158 80.4888 0.186523 80.5691 0.186523H89.4512C89.5303 0.186523 89.5982 0.214368 89.6538 0.267637Z" fill="white"/>
<path d="M92.4051 15.5422C91.596 14.7638 91.1908 13.7456 91.1908 12.4854V11.8788C91.1908 11.8013 91.2179 11.7348 91.2735 11.6803C91.3291 11.6258 91.3958 11.598 91.4761 11.598H93.6429C93.722 11.598 93.7899 11.6258 93.8455 11.6803C93.9011 11.7348 93.9283 11.8013 93.9283 11.8788V12.3461C93.9283 12.9527 94.0827 13.443 94.3928 13.8159C94.7016 14.1899 95.1031 14.3764 95.5948 14.3764C96.0865 14.3764 96.4916 14.202 96.8104 13.851C97.1278 13.5011 97.286 13.0386 97.286 12.4624C97.286 12.058 97.1983 11.7081 97.0241 11.4127C96.8499 11.1173 96.6028 10.8377 96.2866 10.5725C95.9691 10.3086 95.4614 9.92727 94.7622 9.4297C93.9678 8.86917 93.3292 8.37159 92.8449 7.93576C92.3606 7.49993 91.9554 6.97451 91.6305 6.36072C91.3044 5.74571 91.1426 5.03385 91.1426 4.22514C91.1426 2.93339 91.5391 1.90676 92.3335 1.14406C93.1278 0.382563 94.1754 0 95.4774 0C96.7795 0 97.8592 0.400723 98.6683 1.20217C99.4775 2.00361 99.8827 3.06535 99.8827 4.38737V4.9479C99.8827 5.02538 99.8543 5.09196 99.7987 5.14644C99.7431 5.20092 99.6764 5.22877 99.5961 5.22877H97.4527C97.3737 5.22877 97.3057 5.20213 97.2501 5.14644C97.1946 5.09196 97.1661 5.02659 97.1661 4.9479V4.34136C97.1661 3.73483 97.0117 3.24815 96.7017 2.88254C96.3928 2.51693 95.9839 2.33412 95.475 2.33412C94.9981 2.33412 94.609 2.50119 94.3075 2.83654C94.0061 3.17188 93.8554 3.63435 93.8554 4.22514C93.8554 4.78567 94.0185 5.26024 94.3434 5.64886C94.6683 6.03748 95.3082 6.575 96.2606 7.25901C97.2291 7.95877 97.9592 8.5314 98.4521 8.97449C98.9438 9.41759 99.3255 9.90427 99.5948 10.4333C99.8642 10.9624 100 11.5931 100 12.3231C100 13.6464 99.5948 14.7081 98.7857 15.5083C97.9753 16.3098 96.9117 16.7105 95.5948 16.7105C94.2779 16.7105 93.213 16.3219 92.4039 15.5434L92.4051 15.5422Z" fill="white"/>
<path d="M53.2877 14.3271C54.4532 12.7441 54.8621 10.5399 54.3101 8.25556H52.0405C53.8602 9.6983 54.6577 12.5236 53.0832 14.1467C49.7504 11.3214 45.9882 6.83287 45.9882 4.58862C45.9882 3.206 46.8878 2.60486 48.0738 2.60486C49.3619 2.60486 50.9568 3.30619 52.0813 4.48843V2.58482C51.0999 2.34437 50.1184 2.2041 49.2392 2.2041C46.9287 2.2041 45.1499 3.14589 45.1499 5.87105C45.1499 6.63249 45.293 7.2737 45.5588 7.89488C40.856 10.5599 42.9007 16.6715 48.3805 16.6715C49.73 16.6715 51.0386 16.2908 52.1018 15.5093L53.4664 16.5312H56.4721C55.6747 16.1505 54.3918 15.2488 53.2877 14.3271ZM49.4233 15.329C44.5569 15.329 43.0847 10.1992 45.6201 8.07522C46.6834 10.5599 49.2801 13.1649 51.5497 15.0284C50.8545 15.2488 50.1389 15.329 49.4233 15.329Z" fill="#FF5834"/>
</svg>
